<?xml version="1.0" encoding="utf-8"?>
<!-- Generator: Adobe Illustrator 16.0.0, SVG Export Plug-In . SVG Version: 6.00 Build 0)  -->
<!DOCTYPE svg PUBLIC "-//W3C//DTD SVG 1.1//EN" "http://www.w3.org/Graphics/SVG/1.1/DTD/svg11.dtd">
<svg version="1.1" id="Layer_1" xmlns="http://www.w3.org/2000/svg" xmlns:xlink="http://www.w3.org/1999/xlink" x="0px" y="0px"
	 width="900px" height="900px" viewBox="0 0 900 900" enable-background="new 0 0 900 900" xml:space="preserve">
<g>
	<g>
		
			<image overflow="visible" opacity="0.1" width="827" height="827" xlink:href="77CC0DE8.png"  transform="matrix(1 0 0 1 38.4995 38.5)">
		</image>
		<g>
			<circle fill="#E3FFFC" cx="450.262" cy="450.392" r="406.462"/>
			<circle fill="none" stroke="#A1C947" stroke-miterlimit="10" cx="450.262" cy="450.392" r="406.462"/>
		</g>
	</g>
	<g>
		<g>
			<defs>
				<path id="XMLID_1_" d="M136.377,213.804c0,0-75.692,265.343,10.88,390.023c86.567,124.684,309.164,70.932,309.164,70.932
					s128.154-189.777,41.584-314.465C411.442,235.618,136.377,213.804,136.377,213.804z"/>
			</defs>
			<use xlink:href="#XMLID_1_"  overflow="visible" fill="#FFCF30"/>
			<clipPath id="XMLID_5_">
				<use xlink:href="#XMLID_1_"  overflow="visible"/>
			</clipPath>
			<g clip-path="url(#XMLID_5_)">
				<path fill="#FFFFFF" d="M421.792,289.06c-5.742-1.034-11.232,2.77-12.273,8.513l-2.055,19.824l-36.61,211.33l-38.374-55.271
					l31.667-183.878l11.618-68.658c1.044-5.729-3.206-10.932-8.95-11.952c-5.74-1.046-11.441,2.911-12.471,8.651l-9.562,60.815
					l-29.336,170.498L116.822,162.854l-18.091-26.049c-3.317-4.796-10.24-5.744-15.036-2.417
					c-4.803,3.333-6.326,10.146-2.996,14.931l20.853,30.055l195.864,282.085l-169.97-29.45l-71.556-12.307
					c-5.744-1.031-11.576,3.021-12.603,8.75c-1.034,5.743,2.588,11.347,8.345,12.39l79.386,13.192l183.422,31.945l38.373,55.27
					l-211.132-36.868l-30.393-4.874c-5.736-1.05-11.566,3.011-12.611,8.753c-1.033,5.729,2.603,11.34,8.354,12.376l41.26,6.313
					l221.554,38.834l38.375,55.268l-280.14-49.337l-2.121,0.227c-5.75-1.027-11.589,3.024-12.622,8.767
					c-1.028,5.737,2.602,11.357,8.336,12.378l19.132,2.31l284.441,50.181l30.851,44.432l0.387,0.552
					c3.316,4.797,10.248,5.743,15.045,2.413c4.769-3.322,6.327-10.137,2.989-14.932l-0.272-0.381l-30.962-44.605l53.511-305.022
					l0.801-8.641c1.035-5.739-3.193-10.926-8.938-11.964c-3.585-0.645-7.318,0.766-9.691,3.208
					c-1.401,1.443-0.774,2.182-1.167,4.328L426.26,608.52l-38.38-55.259l38.496-221.792l4.79-30.75
					C432.208,294.976,427.529,290.092,421.792,289.06z"/>
			</g>
		</g>
		<g>
			<defs>
				<path id="XMLID_3_" d="M571.035,96.087c0,0-252.133,112.118-292.255,258.515c-40.132,146.387,143.872,282.679,143.872,282.679
					s227.799-23.396,267.93-169.791C730.711,321.104,571.035,96.087,571.035,96.087z"/>
			</defs>
			<use xlink:href="#XMLID_3_"  overflow="visible" fill="#A1C947"/>
			<clipPath id="XMLID_6_">
				<use xlink:href="#XMLID_3_"  overflow="visible"/>
			</clipPath>
			<g clip-path="url(#XMLID_6_)">
				<path fill="#FFFFFF" d="M696.336,363.327c-2.885-5.07-9.313-6.833-14.385-3.944l-16.531,11.131L479.797,477.972l17.8-64.886
					l161.379-93.654l60.131-35.11c5.059-2.886,6.326-9.477,3.441-14.54c-2.885-5.081-9.577-6.913-14.65-4.022l-52.784,31.671
					l-149.631,86.857l92.081-335.881l8.396-30.587c1.547-5.626-2.169-11.537-7.813-13.093c-5.627-1.535-11.835,1.661-13.366,7.288
					l-9.679,35.276L484.3,378.486l-86.412-149.29l-36.458-62.793c-2.885-5.065-9.738-6.938-14.788-4.056
					c-5.087,2.888-7.063,9.268-4.162,14.344l40.794,69.376l93.145,161.206l-17.783,64.897L351.497,286.55l-15.759-26.453
					c-2.88-5.074-9.73-6.946-14.796-4.061c-5.071,2.879-7.041,9.267-4.146,14.344l21.617,35.7l112.331,194.893l-17.809,64.881
					L291.103,319.297l-1.537-1.487c-2.886-5.072-9.739-6.953-14.811-4.056c-5.065,2.878-7.049,9.27-4.146,14.336l10.494,16.152
					l143.95,250.417l-14.299,52.157l-0.185,0.664c-1.539,5.618,2.172,11.534,7.797,13.08c5.619,1.53,11.847-1.66,13.377-7.287
					l0.123-0.451l14.351-52.361l268.359-154.585l7.127-4.935c5.072-2.877,6.324-9.459,3.44-14.532
					c-1.809-3.167-5.278-5.117-8.675-5.376c-2.01-0.145-2.17,0.81-4.067,1.877L454.124,571.655l17.787-64.882L666.747,394.05
					l26.677-16.044C698.493,375.115,699.24,368.396,696.336,363.327z"/>
			</g>
		</g>
		<g>
			<defs>
				<path id="XMLID_2_" d="M802.151,426.932c0,0-10.933,260.88-125.782,347.139c-114.867,86.252-298.847-28.258-298.847-28.258
					s-58.671-208.609,56.182-294.861C548.574,364.697,802.151,426.932,802.151,426.932z"/>
			</defs>
			<use xlink:href="#XMLID_2_"  overflow="visible" fill="#869B52"/>
			<clipPath id="XMLID_7_">
				<use xlink:href="#XMLID_2_"  overflow="visible"/>
			</clipPath>
			<g clip-path="url(#XMLID_7_)">
				<path fill="#FFFFFF" d="M523.382,409.631c5.451,0.778,9.243,5.833,8.472,11.3l-4.039,18.423L497.83,640.096l50.916-38.237
					l26.253-174.612l9.987-65.13c0.77-5.465,6.136-8.858,11.589-8.086c5.48,0.773,9.416,6.031,8.628,11.494l-9.503,57.473
					l-24.358,161.894l263.535-197.906l24.01-18.024c4.418-3.32,10.903-2.11,14.212,2.303c3.324,4.417,2.668,10.99-1.749,14.31
					l-27.667,20.784L583.819,601.511l161.438,24.094l67.961,10.233c5.449,0.781,9.487,6.152,8.701,11.611
					c-0.773,5.473-5.701,9.432-11.18,8.652l-75.234-11.765L561.224,618.47l-50.915,38.235l200.636,29.686l28.76,4.666
					c5.452,0.771,9.489,6.15,8.719,11.616c-0.773,5.453-5.714,9.416-11.182,8.631l-38.935-6.604l-210.595-31.027l-50.911,38.235
					l266.316,39.021l1.865,0.84c5.465,0.772,9.491,6.151,8.729,11.625c-0.786,5.459-5.726,9.423-11.194,8.635l-17.855-3.613
					l-270.46-39.532l-40.936,30.733l-0.504,0.389c-4.402,3.314-10.918,2.098-14.234-2.318c-3.303-4.417-2.653-10.992,1.756-14.301
					l0.344-0.263l41.101-30.86l42.643-289.937l1.859-7.995c0.773-5.471,6.145-8.867,11.603-8.081
					c3.42,0.485,6.329,2.854,7.746,5.759c0.832,1.711,0.053,2.196-0.23,4.233l-41.021,279.04l50.907-38.221L506.62,446.37
					l4.854-29.058C512.247,411.85,517.902,408.854,523.382,409.631z"/>
			</g>
		</g>
		<g>
			<defs>
				<path id="SVGID_1_" d="M797.896,261.9c-175.186,62.993-318.565,68.47-422.771,172.673
					c-71.479,71.488-74.977,194.18-9.526,259.616c67.781,67.789,188.133,61.967,259.619-9.519
					C729.429,580.467,737.226,439.425,797.896,261.9z"/>
			</defs>
			<clipPath id="SVGID_2_">
				<use xlink:href="#SVGID_1_"  overflow="visible"/>
			</clipPath>
		</g>
	</g>
</g>
</svg>
