<svg id="Capa_1" data-name="Capa 1" xmlns="http://www.w3.org/2000/svg" viewBox="0 0 400 381.94"><defs><style>.cls-1{fill:#96b422;}.cls-2{fill:#fff;}</style></defs><title>Mesa de trabajo 2</title><circle class="cls-1" cx="200" cy="194.18" r="176.59"/><g id="TYSdHf"><path class="cls-2" d="M76.05,228.22c2.79-3.75,6.25-6.19,11.2-5.86a5.37,5.37,0,0,0,2.89-1,12,12,0,0,1,9.17-1.22c7.41,1.84,15,2.35,22.59,3.25,10.32,1.24,20.58,2.87,30.82,4.6A63.39,63.39,0,0,0,166,229.22a4.68,4.68,0,0,0,2.78-.6c-2-.36-3.6-.55-5.13-.92a32.23,32.23,0,0,1-13.36-6.49c-1.57-1.31-1.86-2.39-.14-4,3-2.76,6.47-3.43,10.31-3.45a112.4,112.4,0,0,1,30.85,3.79c7.74,2.14,15.23.39,22.56-2.41a46.76,46.76,0,0,1,20.73-3.39,32.34,32.34,0,0,1,15.16,5.16c12.61,8.24,24.63,17.21,34.45,28.8,4.93,5.82,9.14,12.22,14.3,17.86q10.92,11.94,21.92,23.82v.48c-19.64,0-39.28,0-58.92.05-2.05,0-3.34-.49-4.38-2.32a42.09,42.09,0,0,0-7.59-9.44c-9.21-8.83-20.44-12.51-33-12.62-12.88-.11-25.76,0-38.64,0a44.88,44.88,0,0,1-21.31-5.07,36.92,36.92,0,0,0-8.63-3.34c-6.69-1.64-13.42-3.16-20.06-5-12.52-3.45-25.29-6-37.38-11-3.37-1.38-6.63-3.08-10.21-3.86A5.46,5.46,0,0,1,76.05,232Z"/><path class="cls-2" d="M211.33,164.08a13.8,13.8,0,0,1-2.85,7.2c-1.2,1.77-.54,2.12,1.15,2.44a66.45,66.45,0,0,1,29.12,13.39,68,68,0,0,1,20.77,27.16,1.57,1.57,0,0,1,.19,1.45,76.29,76.29,0,0,0-9.85-5.7c-11.17-4.83-22.43-4.1-33.73-.55-3.63,1.13-7.14,2.63-10.87,3.44-4.73,1-9.31.22-13.86-1-10.53-2.89-21.31-3.51-32.12-3.13a18.44,18.44,0,0,0-15,8.39c-.79,1.14-.22,3.18-1.87,3.47-1.34.24-2.81-.32-4.23-.53-.94-.14-1.87-.35-2.82-.43-4.59-.38-4.69-.41-2.81-4.68,9.43-21.35,25.33-35.13,48.09-40.74,2.07-.51,2.58-1,1.31-2.93-1-1.55-2.11-3.21-1.69-5.88,1.62,2.21,3.07,4,4.3,5.94a2.9,2.9,0,0,0,3.36,1.51,33.78,33.78,0,0,1,7.84-.47c1.33,0,1.8-.48,2-1.69q.87-4.43,2-8.81a5.82,5.82,0,0,1,2.37-3.69,87.65,87.65,0,0,1-.78,11.11c-.12,1.13-1.13,2.68.51,3.35s2.9.07,4-1.56c1.63-2.48,3.07-5.17,5.55-7Z"/><path class="cls-2" d="M197.34,160.36a177.84,177.84,0,0,1-13.78-14.91,71.51,71.51,0,0,1-16.07-34,91.31,91.31,0,0,1-.55-23.53c.4-4.68.72-9.37-.09-14-.27-1.54.62-1.77,1.62-2,5.83-1.53,11.41-.38,16.67,2.1,15.57,7.32,24.56,20,28.36,36.41,3.85,16.59,1,32-9.53,45.71-.41.53-.68,1.27-1.8,1.41.28-8.92.12-17.78-1.63-26.5s-4.63-17.13-10.29-24.34C199.68,123.45,199.8,141.45,197.34,160.36Z"/><path class="cls-2" d="M211.33,164.1c-.65-6.91,1.25-13.27,4.63-19.13,7.84-13.59,19.75-21,35.4-22.06a28.57,28.57,0,0,1,16.91,4,16.79,16.79,0,0,1,3.36,2.64c2.63,2.7,2.63,2.81,0,5.33-3,2.87-5.31,6.34-7.81,9.62C253.51,158,239.75,165.06,223,166.66c-3.24.31-6.47.68-10.39,1.1,7.72-11.72,16.38-21.4,29.18-26.67-3.31.31-6.22,1.83-9,3.39-8.48,4.71-15.21,11.44-21.21,18.94a2.16,2.16,0,0,0-.25.66S211.33,164.1,211.33,164.1Z"/><path class="cls-2" d="M180,165.3c-8.29-10.16-17.16-18.69-29.56-22.49,12.13,5.5,20.55,15,27.92,26-2.61.53-4.92-.09-7.22-.29-9.39-.84-18.46-2.83-26.79-7.54-7.49-4.24-13.38-10.14-18.45-17-2.32-3.13-4.58-6.32-7.6-8.82-1.21-1-.63-1.74,0-2.59,3.31-4.36,8-6.44,13.16-7.44,20.89-4.07,42.53,10.12,47.63,31.1A26.48,26.48,0,0,1,180,165.3Z"/></g></svg>