<?xml version="1.0" encoding="utf-8"?>
<!-- Generator: Adobe Illustrator 16.0.0, SVG Export Plug-In . SVG Version: 6.00 Build 0)  -->
<!DOCTYPE svg PUBLIC "-//W3C//DTD SVG 1.1//EN" "http://www.w3.org/Graphics/SVG/1.1/DTD/svg11.dtd">
<svg version="1.1" id="Layer_1" xmlns="http://www.w3.org/2000/svg" xmlns:xlink="http://www.w3.org/1999/xlink" x="0px" y="0px"
	 width="900px" height="514px" viewBox="0 194.5 900 514" enable-background="new 0 194.5 900 514" xml:space="preserve">
<g display="none">
	<defs>
		<filter id="Adobe_OpacityMaskFilter" filterUnits="userSpaceOnUse" x="44.073" y="38.884" width="811.852" height="821.298">
			<feColorMatrix  type="matrix" values="1 0 0 0 0  0 1 0 0 0  0 0 1 0 0  0 0 0 1 0"/>
		</filter>
	</defs>
	<mask maskUnits="userSpaceOnUse" x="44.073" y="38.884" width="811.852" height="821.298" id="SVGID_1_" display="inline">
		<g filter="url(#Adobe_OpacityMaskFilter)">
			<circle fill="#FFFFFF" cx="449.333" cy="453.254" r="405.927"/>
		</g>
	</mask>
	<g display="inline" mask="url(#SVGID_1_)">
		<rect x="44.073" y="38.884" fill="#9BEAFC" width="811.852" height="821.298"/>
		<path opacity="0.7" fill="#FFFFFF" enable-background="new    " d="M44.073,320.729c2.844-0.376,5.744-0.579,8.692-0.579
			c10.057,0,19.584,2.264,28.104,6.305c11.088-45.518,52.119-79.309,101.049-79.309c52.029,0,95.134,38.203,102.796,88.088
			c8.189-6.158,18.37-9.81,29.405-9.81c24.382,0,44.594,17.82,48.341,41.145H44.073V320.729z"/>
		<path opacity="0.7" fill="#FFFFFF" enable-background="new    " d="M501.388,388.852c6.146,0,12.102,0.809,17.77,2.32
			c8.703-57.007,57.943-100.679,117.385-100.679c53.412,0,98.586,35.266,113.516,83.783c5.473-1.196,84.678,23.21,93.631,57.17
			c2.707-0.495,5.49-0.767,8.342-0.767c1.131,0,2.252,0.046,3.361,0.126v30.615H432.664c-0.067-1.24-0.104-2.486-0.104-3.742
			C432.561,419.667,463.375,388.852,501.388,388.852z"/>
		<g>
			
				<linearGradient id="SVGID_2_" gradientUnits="userSpaceOnUse" x1="472.5337" y1="676.9248" x2="472.5337" y2="-354.6068" gradientTransform="matrix(1 0 0 -1 -22.5352 787.5352)">
				<stop  offset="0.3002" style="stop-color:#5A555E"/>
				<stop  offset="0.4447" style="stop-color:#4D4950"/>
				<stop  offset="0.7165" style="stop-color:#2A282C"/>
				<stop  offset="1" style="stop-color:#000000"/>
			</linearGradient>
			<rect x="44.073" y="459.218" fill="url(#SVGID_2_)" width="811.852" height="400.964"/>
		</g>
		<g>
			<path fill="#53841E" d="M456.652,529.607c3.908-11.728,16.498-65.33,70.623-112.238c54.123-46.907,86.43-62.413,109.148-67.805
				c0,0-68.119,41.231-104.338,74.72c-59.838,55.326-73.209,124.795-73.209,124.795L456.652,529.607z"/>
		</g>
		<g>
			<path fill="#558C22" d="M427.027,392.732c1.305-12.292,2.779-68.961,45.593-126.378c42.813-57.417,32.855-42.804,4.656-2.331
				c-46.588,66.864-43.75,140.208-43.75,140.208L427.027,392.732z"/>
		</g>
		<g>
			<path fill="#53841E" d="M429.652,544.482c-3.909-11.728-17.402-66.205-71.525-113.112c-54.124-46.907-41.031-26.573-4.812,6.917
				c59.837,55.326,73.668,116.967,73.668,116.967L429.652,544.482z"/>
		</g>
		<polygon fill="#161917" points="612.617,581.193 690.304,582.387 712.197,552.803 687.474,570.723 600.183,565.928 
			551.058,614.152 449.387,626.271 396.65,590.131 324.822,607.082 263.879,569.757 199.103,576.947 259.174,580.822 
			326.842,634.352 392.31,619.389 544.998,724.24 555.238,774.71 562.167,725.25 643.976,709.808 557.117,707.07 482.488,648.275 
			575.296,631.322 		"/>
		<polygon points="433.049,615.075 434.207,648.158 460.662,666.325 479.861,622.64 449.387,626.271 		"/>
		<path fill="#BCBEC0" d="M350.737,433.37c0,8.203-6.649,14.853-14.854,14.853h-27.706c-8.203,0-14.853-6.649-14.853-14.853l0,0
			c0-8.203,6.649-14.854,14.853-14.854h27.706C344.087,418.517,350.737,425.167,350.737,433.37L350.737,433.37z"/>
		<path fill="#8DB52C" d="M646.177,338.269c0,0-96.063,2.924-143.145,42.762c-53.961,45.656-36.008,119.417-36.008,119.417
			s29.115-14.876,94.527-71.05C608.343,389.214,646.177,338.269,646.177,338.269z"/>
		<path fill="#558C22" d="M257.896,348.553c0,0,86.193,11.688,124.105,49.955c58.143,58.686,34.198,109.689,34.198,109.689
			s-54.811,27.017-112.952-31.669C265.335,438.263,257.896,348.553,257.896,348.553z"/>
		<path fill="#53841E" d="M460.458,527.67c-0.557-21.27-2.033-44.016-5.4-66.577c-1.57-11.283-3.775-22.498-6.21-33.449
			c-0.667-2.728-1.332-5.444-1.993-8.147c-0.341-1.35-0.645-2.699-1.014-4.034c-0.377-1.333-0.753-2.662-1.127-3.987
			c-0.752-2.645-1.5-5.272-2.243-7.883c-0.838-2.584-1.669-5.148-2.494-7.694c-6.674-20.313-15.475-38.253-23.573-53.206
			c-16.792-31-50.125-55.334-48.125-54.5c0.161,0.067-1.499,2.592,1.5,6c11,12.5,22.365,30.766,33.321,54.94
			c6.639,14.647,11.807,32.758,16.063,52.35c0.527,2.448,1.058,4.917,1.594,7.402c0.451,2.508,0.905,5.033,1.361,7.574
			c0.229,1.269,0.461,2.541,0.691,3.816c0.226,1.276,0.387,2.574,0.583,3.864c0.382,2.583,0.765,5.179,1.148,7.783
			c1.323,10.466,2.468,21.118,3.047,31.853c1.376,21.432,1.113,43.022,0.172,63.274c-1.036,20.273-2.779,39.209-4.539,55.573
			c-1.743,16.355-3.384,30.146-4.271,40.229c-0.228,2.516-0.826,10.525-0.866,12.037c-0.11,2.945,0.002,2.199,0.002,2.199
			l36.924,25.339c0,0,4.039-60.072,4.729-76.885C460.441,568.74,460.923,548.932,460.458,527.67z"/>
		<polygon points="575.296,631.322 605.277,590.691 600.183,565.928 551.058,614.152 551.058,635.75 		"/>
		<path d="M324.823,607.082c0,0,1.543,26.553,2.02,27.27l65.468-14.964l3.994-29.175L324.823,607.082z"/>
		<polygon points="199.103,576.947 259.174,580.822 263.879,569.757 		"/>
		<polygon points="564.46,724.816 643.976,709.808 557.117,707.07 		"/>
		<path fill="#558C22" d="M467.025,500.447c0,0,53.936,18.254,119.385-31.627c49.055-37.386,59.768-130.552,59.768-130.552
			C535.943,370.357,467.025,500.447,467.025,500.447z"/>
		<polygon fill="#222623" points="482.488,648.275 479.089,678.924 544.998,724.24 557.117,707.07 		"/>
	</g>
	<path display="inline" fill="#395610" d="M432.561,646.947l22.554,15.477c0,0,0.662-8.773,1.1-15.398
		C452.214,651.691,438.881,650.857,432.561,646.947z"/>
	<path display="inline" fill="#8DB52C" d="M382.132,398.508c-37.912-38.267-124.104-49.955-124.104-49.955
		c13.381,9.138,110.714,64.472,158.302,159.645C416.33,508.197,440.275,457.193,382.132,398.508z"/>
	<path display="inline" fill="#53841E" d="M393.409,233.857c-1.5-51,3.5,1,3.5,1c0.5,20.5,6.751,78.668,19.625,107.834
		l-10.125-4.834L393.409,233.857z"/>
	<path display="inline" fill="#558C22" d="M533.878,186.495c0,0-71.732,24.749-95.918,65.311
		c-30.933,51.874-2.712,91.245-2.712,91.245s45.591,10.497,79.574-42.823C540.203,260.403,533.878,186.495,533.878,186.495z"/>
	<path display="inline" fill="#8DB52C" d="M533.878,186.495c0,0-71.732,24.749-95.918,65.311
		c-30.934,51.874-2.712,91.245-2.712,91.245C444.742,309.024,486.076,226.357,533.878,186.495z"/>
	<path display="inline" fill="#8DB52C" d="M269.846,218.896c0,0,19.881,38.613,46.618,57.871
		c41.004,29.534,61.205,19.587,61.205,19.587s13.099-31.051-27.905-60.585C323.025,216.511,269.846,218.896,269.846,218.896z"/>
	<path display="inline" fill="#558C22" d="M308.497,285.531c41.004,29.534,69.172,10.824,69.172,10.824
		c-17.833-29.19-70.438-70.469-107.822-77.458C269.846,218.896,281.759,266.273,308.497,285.531z"/>
	<path display="inline" fill="#53841E" d="M406.409,337.857c0,0-11.5-53-13-104L406.409,337.857z"/>
	<path display="inline" fill="#558C22" d="M395.475,144.066c0,0-22.838,29.09-22.421,53.458
		c0.642,37.371,24.059,42.019,24.059,42.019s22.114-5.433,21.474-42.804C418.169,172.372,395.475,144.066,395.475,144.066z"/>
	<path display="inline" fill="#8DB52C" d="M418.587,196.74c-0.418-24.368-23.112-52.674-23.112-52.674l1.638,95.478
		C397.112,239.544,419.227,234.111,418.587,196.74z"/>
</g>
<g display="none">
	<g display="inline">
		
			<image overflow="visible" opacity="0.1" enable-background="new    " width="3563" height="3567" xlink:href="FAB4642E.png"  transform="matrix(0.2396 0 0 0.2396 24.9019 27.1533)">
		</image>
		<g>
			<circle fill="#FFFFFF" cx="449.711" cy="452.441" r="421.049"/>
		</g>
	</g>
	<g display="inline">
		<g>
			<path id="SVGID_3_" fill="#00FEF7" d="M109.168,445.246c4.873-189.217,162.21-338.679,351.449-333.797
				c189.23,4.862,338.705,162.207,333.82,351.441c-4.854,189.242-162.234,338.672-351.469,333.812
				C253.745,791.828,104.296,634.494,109.168,445.246z"/>
		</g>
		<g>
			<defs>
				<path id="SVGID_4_" d="M109.168,445.246c4.873-189.217,162.21-338.679,351.449-333.797
					c189.23,4.862,338.705,162.207,333.82,351.441c-4.854,189.242-162.234,338.672-351.469,333.812
					C253.745,791.828,104.296,634.494,109.168,445.246z"/>
			</defs>
			<clipPath id="SVGID_5_">
				<use xlink:href="#SVGID_4_"  overflow="visible"/>
			</clipPath>
			<path clip-path="url(#SVGID_5_)" fill="#D8EDE4" d="M109.168,445.246c4.873-189.217,162.21-338.679,351.449-333.797
				c189.23,4.862,338.705,162.207,333.82,351.441c-4.854,189.242-162.234,338.672-351.469,333.812
				C253.745,791.828,104.296,634.494,109.168,445.246z"/>
		</g>
		<g>
			<defs>
				<path id="SVGID_6_" d="M109.168,445.246c4.873-189.217,162.21-338.679,351.449-333.797
					c189.23,4.862,338.705,162.207,333.82,351.441c-4.854,189.242-162.234,338.672-351.469,333.812
					C253.745,791.828,104.296,634.494,109.168,445.246z"/>
			</defs>
			<clipPath id="SVGID_7_">
				<use xlink:href="#SVGID_6_"  overflow="visible"/>
			</clipPath>
			<g clip-path="url(#SVGID_7_)">
				<path fill="#869B52" d="M426.644,590.305c-3.866,6.076-2.547,21.18-9.031,27.443c-8.679,8.406-22.407,10.125-23.86,25.25
					c-0.376,3.806-3.172,5.806-6.174,6.236c-9.965,14.93-20.574,27.395-23.141,45.526c4.057,15.223,14.314,29.985,15.979,45.56
					c0.578,5.559-0.651,9.8-3.03,12.597c-0.248,0.421-0.375,0.913-0.691,1.261c-1.446,2.418-4.749,3.318-7.749,2.605
					c-2.769,0.087-5.836-0.505-9.104-1.993c-2.003-0.919-3.044-3.491-3.158-5.599c-31.944-17.084-51.709-49.185-49.736-87.136
					c1.12-21.526,11.088-45.77-8.153-63.979c-4.714-4.476-13.038-10.572-15.083-17.457c-5.634-18.857,2.427-27.631,9.167-42.775
					c-4.391-12.186-28.832-24.019-35.268-38.333c-7.104-15.92-15.499-24.431-16.587-41.83c-1.45-22.965-35.87-24.854-48.511-39.714
					c-7.789-9.184-21.652-22.172-23.956-34.658c-4.246-23.03-3.664-49.035-1.591-72.313c2.145-24.231-6.89-45.485-6.78-68.687
					c0.107-17.041,6.146-57.085,23.467-65.077c3.189-1.471,6.077-0.441,7.996,1.519c18.86-17.235,43.728-27.579,54.489-50.812
					c12.248-26.373,37.603-44.161,62.612-57.891c23.199-12.775,71.744-27.703,83.396-3.12c1.896,0.2,3.713,1.071,5.094,2.944
					c2.755,3.773,4.769,8.767,6.123,14.424c4.282,7.183,5.859,16.78,5.712,27.014c6.584,16.067,9.107,33.797-3.409,47.581
					c-4.497,4.928-9.387,8.54-14.875,10.861c-7.858,7.221-17.947,8.629-29.568,8.316c-9.329,2.18-18.461,5.021-27.889,6.987
					c-3.671,0.438-7.359,0.664-11.095,0.664c-3.946,6.501-4.614,13.099-2.042,19.786c1.666,9.935,4.841,24.786-3.634,32.864
					c-9.94,9.476-17.877,9.015-30.829,8.877c-9.679,11.962-6.849,20.547,8.563,25.733c4.211,1.542,8.392,3.154,12.568,4.834
					c0.089,0.034,0.158,0.062,0.259,0.106c9.024-1.408,17.268-4.879,25.495-10.701c9.479-6.684,22.792-19.019,35.577-18.541
					c32.234,1.178,36.422,31.308,25.739,56.236c-10.168,23.755-4.658,47.653,4.478,71.299c6.669,17.152,17.021,27.913,17.984,46.366
					c1.265,24.647-42.813,27.975-57.908,26.711c-11.058-0.899-61.028-30.564-59.254,3.657c0.782,14.805-4.191,24.298-12.614,35.54
					c-0.537,2.112-1.291,4.195-2.279,6.556c-4.29,10.386,19.255,11.247,25.981,10.769c9.046-0.668,16.648-2.27,24.296-2.031
					c4.521-1.315,8.744-1.766,11.85-0.108c4.587,2.443,8.677,5.144,12.806,7.851c18.006,7.45,34.004,11.255,37.53,29.151
					c4.173,3.539,8.409,7.123,12.868,10.719C420.167,559.803,435.926,575.723,426.644,590.305z"/>
				<path fill="#869B52" d="M736.281,552.52c-0.441,1.604-1.043,3.13-2.189,4.979c-2.215,3.604-7.975,4.547-10.836,1.104
					c-8.25-9.896-19.66-15.633-32.455-16.09c-14.215-0.514-4.326,11.07-2.303,18c3.178,11.084-0.016,20.697-9.945,27.276
					c-10.98,7.321-23.506,7.826-35.354,2.087c-4.605-2.229-7.215-6.539-9.016-11.594c-6.578,23.771-7.502,86.727-16.07,108.747
					c-6.625,16.947-12.906,31.613-30.893,37.187c-14.879,4.596-30.6-52.891-33.701-62.852c-3.166-10.268,2.08-23.459,4.783-33.043
					c8.844-31.346-19.648-28.121-42.713-38.084c-25.08-10.871-32.236-72.219-2.908-88.566c21.803-12.134,35.768-3.016,58.359,1.938
					c22.018,4.827,47.162,7.405,67.285-4.98c9.529-5.369,18.361-11.68,26.525-18.955c11.021-13.657,13.211-27.377,6.773-41.149
					c-0.264-0.011-0.49,0.056-0.754,0.015c-2.793-0.475-5.172-1.805-7.729-2.797c-5.631,6.336-13.684,23.97-23.742,20.915
					c-3.553-1.08-8.775-0.778-11.904-2.713c-0.354-0.23-1.283-1.172-2.318-2.353c0.6,12.433,2.98,25.443-12.012,30.209
					c-15.213,4.861-10.771-36.755-25.736-19.635c-0.813,0.947-1.725,1.491-2.648,1.829c-5.277,8.768-15.637,27.123-26.186,23.931
					c-10.5-3.181-26.768-10.729-34.428-18.794c-8.439-8.866-2.129-16.91,4.17-23.008c3.182-3.089,9.314-3.984,13.449-3.767
					c15.502-21.491,17.406-28.064,5.693-19.738c-1.09,0.599-2.264,0.875-3.504,0.851c-32.119-2.361-30.168-38.738-25.262-63.59
					c1.182-5.913,9.408-11.608,15.354-9.362c9.396,3.587,15.305,9.826,23.934,14.785c47.465,27.176,64.334-39.434,60.063-68.913
					c-0.141-0.93-0.041-1.777,0.137-2.579c-2.504-14.218-8.029-27.455-10.496,1.516c-0.912,10.567-1.539,25.33-11.311,32.158
					c-23.814,16.652-43.229,4.18-48.148-22.344c-3.326-17.769,5.154-34.965,11.096-50.915c7.428-20.014-0.385-40.389,4.586-61.008
					c2.967-12.393,19.459-22.582,29.252-29.121c22.465-15.041,40.352-37.781,52.949-61.617c2.352-4.479,7.098-3.967,10.043-1.318
					c2.326,0.269,3.916,1.467,4.834,3.105c20.66,12.5,42.521,25.278,59.283,42.671c15.088,15.682,41.637,20.585,52.82,39.71
					c11.906,20.336,25.838,39.94,36.08,61.162c10.705,22.216,11.693,48.519,14.334,72.584
					C831.595,394.73,814.375,517.668,736.281,552.52z"/>
			</g>
		</g>
	</g>
</g>
<g display="none">
	<path display="inline" fill="#5FA7D1" d="M865.33,455.401c0,226.218-183.383,409.604-409.605,409.604
		c-226.216,0-409.603-183.387-409.603-409.604c0-226.219,183.387-409.604,409.603-409.604
		C681.947,45.797,865.33,229.182,865.33,455.401z"/>
	<g display="inline">
		<g>
			<g>
				<defs>
					<path id="SVGID_8_" d="M865.33,455.401c0,226.218-183.383,409.604-409.605,409.604c-226.216,0-409.603-183.387-409.603-409.604
						c0-226.219,183.387-409.604,409.603-409.604C681.947,45.797,865.33,229.182,865.33,455.401z"/>
				</defs>
				<clipPath id="SVGID_9_">
					<use xlink:href="#SVGID_8_"  overflow="visible"/>
				</clipPath>
				<g clip-path="url(#SVGID_9_)">
					<path fill="#8E9092" d="M732.466,249.926l-88.088,97.723L514.871,203.977L409.622,320.732L305.938,205.711l-124.12,137.692
						l-47.531-52.732L-85.046,533.986c0,0,98.196,243.319,219.333,243.319c50.752,0,97.475-42.721,134.641-92.359
						c12.032,4.73,24.394,7.4,37.009,7.4c38.161,0,74.036-24.153,105.292-57.233c30.865,32.188,66.148,55.5,103.642,55.5
						c39.779,0,77.09-26.246,109.256-61.497c31.248,36.949,68.436,65.833,108.34,65.833c110.773,0,200.58-222.512,200.58-222.512
						L732.466,249.926z"/>
					<path opacity="0.85" fill="#FFFFFF" enable-background="new    " d="M689.242,236.508c0-7.598-6.156-13.755-13.758-13.755
						c-1.092,0-2.146,0.13-3.166,0.371c-1.506-5.961-6.908-10.376-13.34-10.376c-5.488,0-10.225,3.22-12.43,7.869
						c-2.51-2.685-6.078-4.367-10.051-4.367c-6.545,0-12.016,4.569-13.404,10.688c-1.965-1.074-4.213-1.685-6.604-1.685
						c-7.598,0-13.75,6.157-13.75,13.752c0,2.27,0.545,4.407,1.523,6.295c-2.639,2.505-4.279,6.039-4.279,9.961
						c0,7.596,6.16,13.755,13.756,13.755c2.783,0,5.383-0.833,7.553-2.26c2.514,2.77,6.145,4.512,10.178,4.512
						c5.039,0,9.436-2.708,11.83-6.741c2.494,3.475,6.574,5.738,11.178,5.738c4.465,0,8.424-2.125,10.939-5.417
						c2.424,2.125,5.59,3.418,9.068,3.418c7.594,0,13.75-6.159,13.75-13.756c0-3.178-1.068-6.098-2.893-8.425
						C687.755,243.607,689.242,240.232,689.242,236.508z"/>
					<path fill="#7AA94B" d="M547.521,599.007c0,119.702-115.857,216.733-258.775,216.733S29.968,718.709,29.968,599.007
						c0-119.696,115.86-216.732,258.778-216.732S547.521,479.311,547.521,599.007z"/>
					<path fill="#7AA94B" d="M935.041,618.912c0,124.506-123.887,225.436-276.715,225.436c-152.824,0-342.75-118.86-276.718-225.436
						c56.688-91.492,116.144-222.764,317.273-222.764C844.523,396.148,935.041,494.406,935.041,618.912z"/>
					<rect x="23.03" y="609.411" fill="#84BA51" width="851.323" height="39.88"/>
					<rect x="-31.414" y="651.166" fill="#6F5238" width="967.449" height="252.265"/>
					<rect x="-31.414" y="649.433" fill="#46413A" width="967.449" height="33.808"/>
					<path opacity="0.85" fill="#FFFFFF" enable-background="new    " d="M219.869,104.875c0-8.89,7.205-16.097,16.097-16.097
						c1.275,0,2.514,0.154,3.711,0.435c1.76-6.979,8.075-12.138,15.602-12.138c6.423,0,11.97,3.761,14.549,9.208
						c2.938-3.144,7.116-5.11,11.762-5.11c7.655,0,14.056,5.344,15.685,12.504c2.292-1.255,4.924-1.971,7.726-1.971
						c8.888,0,16.096,7.205,16.096,16.093c0,2.656-0.646,5.158-1.783,7.367c3.081,2.933,5.003,7.067,5.003,11.656
						c0,8.892-7.206,16.097-16.095,16.097c-3.264,0-6.3-0.975-8.834-2.641c-2.944,3.24-7.192,5.276-11.917,5.276
						c-5.889,0-11.041-3.173-13.847-7.89c-2.919,4.069-7.688,6.718-13.074,6.718c-5.225,0-9.863-2.489-12.803-6.338
						c-2.835,2.487-6.547,4-10.615,4c-8.884,0-16.093-7.206-16.093-16.099c0-3.716,1.264-7.138,3.382-9.86
						C221.603,113.187,219.869,109.23,219.869,104.875z"/>
				</g>
			</g>
			<g>
				<defs>
					<path id="SVGID_10_" d="M865.33,455.401c0,226.218-183.383,409.604-409.605,409.604
						c-226.216,0-409.603-183.387-409.603-409.604c0-226.219,183.387-409.604,409.603-409.604
						C681.947,45.797,865.33,229.182,865.33,455.401z"/>
				</defs>
				<clipPath id="SVGID_11_">
					<use xlink:href="#SVGID_10_"  overflow="visible"/>
				</clipPath>
				<path clip-path="url(#SVGID_11_)" fill="#EAB733" d="M634.728,145.606c0,22.023-17.854,39.876-39.877,39.876
					s-39.883-17.853-39.883-39.876c0-22.024,17.859-39.88,39.883-39.88C616.873,105.726,634.728,123.582,634.728,145.606z"/>
			</g>
		</g>
		<g>
			<g>
				<path fill="#6F5238" d="M192.339,551.168v28.814c0,12.837,9.953,23.328,22.558,24.239v0.091c0,0,449.554,0.64,475.567,0.64
					c26.023,0,24.814-15.173,24.814-28.18c0-13.014-0.018-21.88-0.018-21.88L192.339,551.168z"/>
				<path fill="#FFFFFF" d="M600.271,484.088l-0.23-66.138c0,0,24.094-5.259,55.219,11.906
					c31.117,17.165,36.326,54.231,36.326,54.231H600.271z"/>
				<g>
					<g>
						<g>
							<path fill="#FFFFFF" d="M348.652,395.136c0,7.279-4.889,13.179-10.915,13.179h-69.409c-6.03,0-10.916-5.899-10.916-13.179
								l0,0c0-7.278,4.886-13.179,10.916-13.179h69.409C343.764,381.957,348.652,387.857,348.652,395.136L348.652,395.136z"/>
							<path fill="#FFFFFF" d="M577.769,395.136c0,7.279-4.891,13.179-10.918,13.179h-69.408c-6.027,0-10.912-5.899-10.912-13.179
								l0,0c0-7.278,4.885-13.179,10.912-13.179h69.408C572.878,381.957,577.769,387.857,577.769,395.136L577.769,395.136z"/>
						</g>
						<g>
							<path fill="#EAB733" d="M715.896,483.264c-10.648-48.195-49.307-88.359-99.994-88.359c-6.434,0-10.457-0.052-15.84-0.042
								l0.018-0.327l-371.24,0.6c-1.265-0.204-2.546-0.337-3.869-0.337h-8.299c-13.438,0-24.333,10.895-24.333,24.33v134.749
								l522.965,1.438C715.304,555.314,722.287,501.625,715.896,483.264z M600.271,484.088l-0.23-66.138
								c0,0,24.094-5.259,55.219,11.906c31.117,17.165,36.326,54.231,36.326,54.231H600.271z"/>
							<g>
								<rect x="515.289" y="417.326" fill="#FFFFFF" width="63.85" height="67.974"/>
								<rect x="439.759" y="417.326" fill="#FFFFFF" width="63.862" height="67.974"/>
								<rect x="364.237" y="417.326" fill="#FFFFFF" width="63.854" height="67.974"/>
								<rect x="288.71" y="417.326" fill="#FFFFFF" width="63.855" height="67.974"/>
								<rect x="213.186" y="417.326" fill="#FFFFFF" width="63.852" height="67.974"/>
							</g>
						</g>
					</g>
					<g>
						<g>
							<g>
								<g>
									<g>
										<path fill="#37332D" d="M577.83,599.125c0,28.74,23.303,52.04,52.039,52.04c28.742,0,52.033-23.3,52.033-52.04
											c0-28.738-23.291-52.04-52.033-52.04C601.132,547.085,577.83,570.387,577.83,599.125z M608.648,599.125
											c0-11.717,9.504-21.217,21.221-21.217c11.719,0,21.213,9.5,21.213,21.217c0,11.72-9.494,21.216-21.213,21.216
											C618.152,620.341,608.648,610.845,608.648,599.125z"/>
									</g>
								</g>
							</g>
						</g>
						<path fill="#FFFFFF" d="M608.648,599.125c0-11.717,9.504-21.217,21.221-21.217c11.719,0,21.213,9.5,21.213,21.217
							c0,11.72-9.494,21.216-21.213,21.216C618.152,620.341,608.648,610.845,608.648,599.125z"/>
					</g>
					<g>
						<g>
							<g>
								<g>
									<g>
										<path fill="#37332D" d="M227.226,599.129c0,28.736,23.3,52.032,52.038,52.032c28.737,0,52.041-23.296,52.041-52.032
											c0-28.742-23.304-52.035-52.041-52.035C250.526,547.094,227.226,570.387,227.226,599.129z M258.051,599.129
											c0-11.721,9.496-21.221,21.213-21.221c11.722,0,21.212,9.5,21.212,21.221c0,11.716-9.49,21.22-21.212,21.22
											C267.547,620.349,258.051,610.845,258.051,599.129z"/>
									</g>
								</g>
							</g>
						</g>
						<path fill="#FFFFFF" d="M258.051,598.916c0-11.721,9.496-21.221,21.213-21.221c11.722,0,21.212,9.5,21.212,21.221
							c0,11.711-9.49,21.219-21.212,21.219C267.547,620.135,258.051,610.627,258.051,598.916z"/>
					</g>
				</g>
			</g>
			<g>
				<g>
					<defs>
						<path id="SVGID_12_" d="M715.896,483.264c-10.648-48.195-49.307-88.359-99.994-88.359c-6.434,0-10.457-0.052-15.84-0.042
							l0.018-0.327l-371.24,0.6c-1.265-0.204-2.546-0.337-3.869-0.337h-8.299c-13.438,0-24.333,10.895-24.333,24.33v134.749
							l522.965,1.438C715.304,555.314,722.287,501.625,715.896,483.264z M600.271,484.088l-0.23-66.138
							c0,0,24.094-5.259,55.219,11.906c31.117,17.165,36.326,54.231,36.326,54.231H600.271z"/>
					</defs>
					<clipPath id="SVGID_13_">
						<use xlink:href="#SVGID_12_"  overflow="visible"/>
					</clipPath>
					<path clip-path="url(#SVGID_13_)" fill="#FFFFFF" d="M729.814,521.418c0,9.498-7.188,17.199-16.047,17.199
						c-8.865,0-16.047-7.701-16.047-17.199c0-9.5,7.182-17.193,16.047-17.193C722.626,504.225,729.814,511.918,729.814,521.418z"/>
				</g>
			</g>
		</g>
	</g>
</g>
<path display="none" fill="#D98F27" d="M453.408,41.621C227.129,42.64,44.52,226.906,45.539,453.18
	c1.02,226.28,185.282,408.888,411.56,407.867c226.277-1.02,408.887-185.279,407.867-411.56
	C863.947,223.213,679.685,40.601,453.408,41.621"/>
<path display="none" fill="#FFFFFF" d="M670.5,571.065l-64.258,66.229L414.011,450.797l184.934-190.614l68.652,66.605l-122.242,126
	C545.355,452.789,668.931,572.68,670.5,571.065"/>
<path display="none" fill="#FFFFFF" d="M471.585,574.076l-64.256,66.229L215.103,453.808l184.934-190.614l68.646,66.606
	L346.441,455.799C346.441,455.799,470.019,575.69,471.585,574.076"/>
<g display="none" opacity="0.15">
	<g display="inline">
		<g>
			<defs>
				
					<rect id="SVGID_14_" x="69.58" y="49.132" transform="matrix(-0.9999 0.0151 -0.0151 -0.9999 671.6141 496.0638)" width="528.708" height="402.871"/>
			</defs>
			<clipPath id="SVGID_15_">
				<use xlink:href="#SVGID_14_"  overflow="visible"/>
			</clipPath>
			<path clip-path="url(#SVGID_15_)" d="M215.103,453.808l184.934-190.614l68.646,66.606l-86.249,89.731
				c0,0,12.992,13.309,31.199,30.865l184.823-190.812L380.762,48.387C236.056,75.523,118.594,178.477,70.516,313.981
				L215.103,453.808z"/>
		</g>
	</g>
</g>
<path display="none" fill="#A4C038" d="M451.845,43.269C226.171,45.667,45.172,230.552,47.57,456.229
	C49.969,681.9,234.856,862.904,460.531,860.506c225.674-2.397,406.674-187.291,404.273-412.963
	C862.408,221.866,677.521,40.87,451.845,43.269"/>
<path display="none" fill="#FFFFFF" d="M587.085,237.23l66.889,65.482L463.917,496.848L271.411,308.392l67.878-69.336
	l127.25,124.574C466.539,363.629,588.716,238.827,587.085,237.23"/>
<path display="none" fill="#FFFFFF" d="M589.23,439.014l66.887,65.48L466.062,698.628L273.556,510.169l67.877-69.329l127.25,124.572
	C468.683,565.412,590.861,440.611,589.23,439.014"/>
<g display="none" opacity="0.15">
	<g display="inline">
		<g>
			<defs>
				
					<rect id="SVGID_16_" x="-7.722" y="372.867" transform="matrix(0.0106 0.9999 -0.9999 0.0106 834.8065 310.6676)" width="536.271" height="408.636"/>
			</defs>
			<clipPath id="SVGID_17_">
				<use xlink:href="#SVGID_16_"  overflow="visible"/>
			</clipPath>
			<path clip-path="url(#SVGID_17_)" d="M466.064,698.628L273.556,510.169l67.877-69.329l90.625,87.896
				c0,0,13.563-13.12,31.449-31.507L270.808,308.885L55.579,528.735C82.445,675.643,186.338,795.262,323.57,844.65L466.064,698.628z
				"/>
		</g>
	</g>
</g>
<g>
	<g>
		<g>
			<g opacity="0.5">
				
					<image overflow="visible" enable-background="new    " width="3971" height="2346" xlink:href="FAB46432.png"  transform="matrix(0.2398 0 0 0.2398 -25.0796 176.7949)">
				</image>
			</g>
			<g>
				
					<linearGradient id="SVGID_18_" gradientUnits="userSpaceOnUse" x1="564.7271" y1="27.3735" x2="894.1752" y2="576.9983" gradientTransform="matrix(-1 0 0 -1 1209.8936 787.5352)">
					<stop  offset="0.0152" style="stop-color:#A6B4AF"/>
					<stop  offset="0.1866" style="stop-color:#C5CECB"/>
					<stop  offset="0.3719" style="stop-color:#DEE3E2"/>
					<stop  offset="0.5639" style="stop-color:#F1F3F2"/>
					<stop  offset="0.765" style="stop-color:#FBFCFC"/>
					<stop  offset="0.9899" style="stop-color:#FFFFFF"/>
				</linearGradient>
				<path fill="url(#SVGID_18_)" d="M873.437,351.043c0-83.002-67.283-150.29-150.285-150.29H177.813
					c-83.002,0-150.289,67.288-150.289,150.29v168.642c0,83.003,67.286,150.285,150.289,150.285H723.15
					c83.002,0,150.285-67.283,150.285-150.285V351.043H873.437z"/>
				
					<linearGradient id="SVGID_19_" gradientUnits="userSpaceOnUse" x1="759.4126" y1="656.207" x2="759.4125" y2="121.6992" gradientTransform="matrix(-1 0 0 -1 1209.8936 787.5352)">
					<stop  offset="0.0101" style="stop-color:#FFFFFF"/>
					<stop  offset="0.235" style="stop-color:#FBFCFC"/>
					<stop  offset="0.4361" style="stop-color:#F1F3F2"/>
					<stop  offset="0.6281" style="stop-color:#DEE3E2"/>
					<stop  offset="0.8134" style="stop-color:#C5CECB"/>
					<stop  offset="0.9848" style="stop-color:#A6B4AF"/>
				</linearGradient>
				<path fill="url(#SVGID_19_)" d="M866.828,348.492c0-79.77-64.662-144.433-144.43-144.433H178.565
					c-79.767,0-144.431,64.663-144.431,144.433v167.137c0,79.766,64.664,144.43,144.431,144.43h543.833
					c79.768,0,144.43-64.664,144.43-144.43V348.492z"/>
				
					<linearGradient id="SVGID_20_" gradientUnits="userSpaceOnUse" x1="762.7163" y1="539.0537" x2="762.7163" y2="286.7989" gradientTransform="matrix(-1 0 0 -1 1209.8936 787.5352)">
					<stop  offset="0" style="stop-color:#C3B373"/>
					<stop  offset="0.9596" style="stop-color:#695D30"/>
				</linearGradient>
				<path fill="url(#SVGID_20_)" d="M827.177,349.698c0-60.359-48.928-109.292-109.289-109.292h-541.42
					c-60.359,0-109.29,48.933-109.29,109.292v168.028c0,60.359,48.93,109.287,109.29,109.287h541.42
					c60.361,0,109.289-48.928,109.289-109.287V349.698z"/>
				
					<linearGradient id="SVGID_21_" gradientUnits="userSpaceOnUse" x1="759.4126" y1="537.041" x2="759.4125" y2="171.1385" gradientTransform="matrix(-1 0 0 -1 1209.8936 787.5352)">
					<stop  offset="0.0253" style="stop-color:#E48822"/>
					<stop  offset="0.4216" style="stop-color:#E59925"/>
					<stop  offset="0.7626" style="stop-color:#E6A326"/>
				</linearGradient>
				<path fill="url(#SVGID_21_)" d="M817.263,348.272c0-52.271-42.373-94.648-94.645-94.648H178.345
					c-52.27,0-94.646,42.377-94.646,94.648v167.576c0,52.273,42.376,94.646,94.646,94.646h544.271
					c52.273,0,94.646-42.371,94.646-94.646V348.272L817.263,348.272z"/>
			</g>
		</g>
		
			<linearGradient id="SVGID_22_" gradientUnits="userSpaceOnUse" x1="759.4116" y1="528.709" x2="759.4116" y2="303.8377" gradientTransform="matrix(-1 0 0 -1 1209.8936 787.5352)">
			<stop  offset="0" style="stop-color:#FFFFFF;stop-opacity:0.3"/>
			<stop  offset="0.9091" style="stop-color:#FFFFFF;stop-opacity:0"/>
		</linearGradient>
		<path fill="url(#SVGID_22_)" d="M457.388,345.869c-200.893,0-304.298,28.251-357.167,75.198v-62.93
			c0-48.826,38.968-87.992,87.797-87.992h525.999c48.828,0,86.727,39.166,86.727,87.992v62.93
			C744.568,374.12,706.56,345.869,457.388,345.869z"/>
	</g>
	<g>
		<g>
			<polygon fill="#FFFFFF" points="480.22,312.423 480.22,362.637 556.222,430.167 556.222,433.901 480.22,501.43 480.22,551.645 
				615.699,433.901 615.699,430.167 			"/>
			<polygon fill="#FFFFFF" points="371.177,312.423 371.177,362.637 450.481,430.167 450.481,433.901 371.177,501.43 
				371.177,551.645 506.654,433.901 506.654,430.167 			"/>
			<polygon fill="#FFFFFF" points="265.438,312.423 265.438,362.637 344.741,430.167 344.741,433.901 265.438,501.43 
				265.438,551.645 400.916,433.901 400.916,430.167 			"/>
		</g>
	</g>
</g>
</svg>
