<?xml version="1.0" encoding="utf-8"?>
<!-- Generator: Adobe Illustrator 16.0.0, SVG Export Plug-In . SVG Version: 6.00 Build 0)  -->
<!DOCTYPE svg PUBLIC "-//W3C//DTD SVG 1.1//EN" "http://www.w3.org/Graphics/SVG/1.1/DTD/svg11.dtd">
<svg version="1.1" id="Layer_1" xmlns="http://www.w3.org/2000/svg" xmlns:xlink="http://www.w3.org/1999/xlink" x="0px" y="0px"
	 width="899.999px" height="900px" viewBox="0 0 899.999 900" enable-background="new 0 0 899.999 900" xml:space="preserve">
<g>
	<defs>
		<filter id="Adobe_OpacityMaskFilter" filterUnits="userSpaceOnUse" x="44.073" y="38.884" width="811.853" height="821.298">
			<feColorMatrix  type="matrix" values="1 0 0 0 0  0 1 0 0 0  0 0 1 0 0  0 0 0 1 0"/>
		</filter>
	</defs>
	<mask maskUnits="userSpaceOnUse" x="44.073" y="38.884" width="811.853" height="821.298" id="SVGID_1_">
		<g filter="url(#Adobe_OpacityMaskFilter)">
			<circle fill="#FFFFFF" cx="449.333" cy="453.254" r="405.927"/>
		</g>
	</mask>
	<g mask="url(#SVGID_1_)">
		<rect x="44.073" y="38.884" fill="#9BEAFC" width="811.853" height="821.298"/>
		<path opacity="0.7" fill="#FFFFFF" d="M44.073,320.729c2.844-0.376,5.744-0.579,8.692-0.579c10.057,0,19.584,2.264,28.104,6.305
			c11.088-45.518,52.119-79.309,101.049-79.309c52.029,0,95.134,38.203,102.796,88.088c8.189-6.158,18.37-9.81,29.405-9.81
			c24.382,0,44.594,17.82,48.341,41.145H44.073V320.729z"/>
		<path opacity="0.7" fill="#FFFFFF" d="M501.389,388.852c6.145,0,12.1,0.809,17.768,2.32
			c8.703-57.007,57.945-100.679,117.385-100.679c53.412,0,98.586,35.266,113.516,83.783c5.473-1.196,84.678,23.21,93.631,57.17
			c2.707-0.495,5.49-0.766,8.341-0.766c1.132,0,2.252,0.046,3.362,0.126v30.615H432.664c-0.067-1.24-0.103-2.486-0.103-3.742
			C432.561,419.667,463.375,388.852,501.389,388.852z"/>
		<g>
			<linearGradient id="SVGID_2_" gradientUnits="userSpaceOnUse" x1="449.9995" y1="110.6108" x2="449.9995" y2="1142.1425">
				<stop  offset="0.3002" style="stop-color:#5A555E"/>
				<stop  offset="0.4447" style="stop-color:#4D4950"/>
				<stop  offset="0.7165" style="stop-color:#2A282C"/>
				<stop  offset="1" style="stop-color:#000000"/>
			</linearGradient>
			<rect x="44.073" y="459.218" fill="url(#SVGID_2_)" width="811.853" height="400.964"/>
		</g>
		<g>
			<path fill="#53841E" d="M456.652,529.607c3.908-11.727,16.498-65.33,70.622-112.238c54.124-46.907,86.43-62.413,109.149-67.805
				c0,0-68.119,41.231-104.338,74.72c-59.837,55.326-73.209,124.795-73.209,124.795L456.652,529.607z"/>
		</g>
		<g>
			<path fill="#558C22" d="M427.027,392.732c1.305-12.292,2.78-68.961,45.594-126.378c42.813-57.417,32.856-42.804,4.656-2.331
				c-46.589,66.864-43.75,140.208-43.75,140.208L427.027,392.732z"/>
		</g>
		<g>
			<path fill="#53841E" d="M429.652,544.482c-3.909-11.727-17.402-66.205-71.525-113.112c-54.124-46.907-41.031-26.573-4.812,6.917
				c59.837,55.326,73.668,116.967,73.668,116.967L429.652,544.482z"/>
		</g>
		<polygon fill="#161917" points="612.617,581.193 690.304,582.387 712.196,552.803 687.474,570.723 600.184,565.928 
			551.059,614.152 449.387,626.271 396.65,590.131 324.822,607.082 263.879,569.757 199.103,576.947 259.174,580.822 
			326.842,634.352 392.31,619.389 544.998,724.24 555.238,774.71 562.168,725.25 643.977,709.808 557.117,707.07 482.487,648.275 
			575.297,631.322 		"/>
		<polygon points="433.049,615.075 434.207,648.158 460.662,666.325 479.861,622.64 449.387,626.271 		"/>
		<path fill="#BCBEC0" d="M350.737,433.37c0,8.203-6.649,14.853-14.853,14.853h-27.706c-8.203,0-14.853-6.65-14.853-14.853l0,0
			c0-8.203,6.649-14.853,14.853-14.853h27.706C344.087,418.517,350.737,425.167,350.737,433.37L350.737,433.37z"/>
		<path fill="#8DB52C" d="M646.178,338.269c0,0-96.063,2.924-143.146,42.762c-53.961,45.656-36.007,119.417-36.007,119.417
			s29.116-14.876,94.528-71.05C608.343,389.214,646.178,338.269,646.178,338.269z"/>
		<path fill="#558C22" d="M257.896,348.553c0,0,86.193,11.688,124.105,49.955c58.143,58.685,34.198,109.689,34.198,109.689
			s-54.81,27.017-112.952-31.669C265.335,438.263,257.896,348.553,257.896,348.553z"/>
		<path fill="#53841E" d="M460.459,527.67c-0.557-21.27-2.033-44.016-5.4-66.577c-1.572-11.283-3.776-22.498-6.211-33.449
			c-0.667-2.728-1.332-5.445-1.994-8.148c-0.34-1.349-0.644-2.699-1.013-4.034c-0.377-1.333-0.753-2.662-1.127-3.987
			c-0.752-2.645-1.5-5.273-2.243-7.883c-0.838-2.584-1.669-5.149-2.494-7.694c-6.674-20.313-15.475-38.253-23.574-53.206
			c-16.792-31-50.125-55.334-48.125-54.5c0.161,0.067-1.499,2.592,1.5,6c11,12.5,22.366,30.766,33.322,54.94
			c6.638,14.647,11.806,32.758,16.063,52.349c0.527,2.449,1.058,4.917,1.594,7.403c0.451,2.508,0.905,5.033,1.361,7.574
			c0.23,1.269,0.461,2.541,0.692,3.816c0.225,1.277,0.386,2.575,0.583,3.865c0.381,2.583,0.764,5.178,1.148,7.783
			c1.323,10.466,2.468,21.118,3.047,31.852c1.376,21.432,1.113,43.023,0.172,63.275c-1.036,20.273-2.78,39.209-4.539,55.573
			c-1.743,16.356-3.384,30.146-4.272,40.229c-0.227,2.515-0.826,10.525-0.866,12.037c-0.11,2.945,0.002,2.199,0.002,2.199
			l36.924,25.339c0,0,4.039-60.072,4.729-76.885C460.441,568.74,460.924,548.932,460.459,527.67z"/>
		<polygon points="575.297,631.322 605.277,590.691 600.184,565.928 551.058,614.152 551.058,635.75 		"/>
		<path d="M324.823,607.082c0,0,1.543,26.553,2.02,27.27l65.468-14.964l3.994-29.175L324.823,607.082z"/>
		<polygon points="199.103,576.947 259.174,580.822 263.879,569.757 		"/>
		<polygon points="564.46,724.816 643.977,709.808 557.117,707.07 		"/>
		<path fill="#558C22" d="M467.024,500.447c0,0,53.936,18.254,119.386-31.627c49.055-37.385,59.768-130.552,59.768-130.552
			C535.943,370.357,467.024,500.447,467.024,500.447z"/>
		<polygon fill="#222623" points="482.487,648.275 479.09,678.924 544.998,724.24 557.117,707.07 		"/>
	</g>
	<path fill="#395610" d="M432.561,646.947l22.553,15.477c0,0,0.663-8.774,1.101-15.399
		C452.215,651.691,438.881,650.857,432.561,646.947z"/>
	<path fill="#8DB52C" d="M382.132,398.508c-37.912-38.267-124.104-49.955-124.104-49.955
		c13.381,9.138,110.714,64.471,158.302,159.644C416.33,508.197,440.275,457.193,382.132,398.508z"/>
	<path fill="#53841E" d="M393.409,233.857c-1.5-51,3.5,1,3.5,1c0.5,20.5,6.751,78.668,19.625,107.834l-10.125-4.834L393.409,233.857
		z"/>
	<path fill="#558C22" d="M533.878,186.495c0,0-71.731,24.749-95.918,65.311c-30.933,51.874-2.712,91.245-2.712,91.245
		s45.592,10.497,79.574-42.823C540.202,260.403,533.878,186.495,533.878,186.495z"/>
	<path fill="#8DB52C" d="M533.878,186.495c0,0-71.731,24.749-95.918,65.311c-30.934,51.874-2.712,91.245-2.712,91.245
		C444.742,309.024,486.076,226.357,533.878,186.495z"/>
	<path fill="#8DB52C" d="M269.846,218.896c0,0,19.881,38.613,46.618,57.871c41.004,29.534,61.205,19.587,61.205,19.587
		s13.099-31.051-27.905-60.585C323.025,216.511,269.846,218.896,269.846,218.896z"/>
	<path fill="#558C22" d="M308.497,285.531c41.004,29.534,69.172,10.824,69.172,10.824c-17.833-29.19-70.438-70.469-107.822-77.458
		C269.846,218.896,281.759,266.273,308.497,285.531z"/>
	<path fill="#53841E" d="M406.409,337.857c0,0-11.5-53-13-104L406.409,337.857z"/>
	<path fill="#558C22" d="M395.475,144.066c0,0-22.838,29.09-22.421,53.458c0.641,37.371,24.058,42.019,24.058,42.019
		s22.115-5.433,21.474-42.804C418.169,172.372,395.475,144.066,395.475,144.066z"/>
	<path fill="#8DB52C" d="M418.587,196.74c-0.418-24.368-23.112-52.674-23.112-52.674l1.637,95.478
		C397.112,239.544,419.227,234.111,418.587,196.74z"/>
</g>
</svg>
