<svg id="Capa_1" data-name="Capa 1" xmlns="http://www.w3.org/2000/svg" viewBox="0 0 400 381.94"><defs><style>.cls-1{fill:#96b422;}.cls-2{fill:#5b7e2c;}</style></defs><title>Mesa de trabajo 2</title><g id="TYjhdn"><path class="cls-1" d="M191.22,16.56h10.36a2.29,2.29,0,0,0,1.58.39c3.9.21,7.79.49,11.67.87,5.2.51,10.35,1.28,15.47,2.28A177.12,177.12,0,0,1,362.61,133.52a165.54,165.54,0,0,1,10,48.33,2.77,2.77,0,0,0,.42,1.59v20.71a1.89,1.89,0,0,0-.42,1.42c0,1.47-.12,2.93-.24,4.4-.34,4.4-.94,8.77-1.67,13.11A176.67,176.67,0,0,1,205.57,370.24a178.71,178.71,0,0,1-20.7-.14q-7.44-.48-14.8-1.56a167.79,167.79,0,0,1-26.65-6.09A177.18,177.18,0,0,1,29.35,252.2a173.53,173.53,0,0,1-8-32.72,156,156,0,0,1-1.68-17.23,191.85,191.85,0,0,1,.16-19.63c.25-3.84.58-7.68,1.05-11.5a164.39,164.39,0,0,1,3.38-18.53A177.17,177.17,0,0,1,139.86,26a170.41,170.41,0,0,1,28.61-7,165.11,165.11,0,0,1,16.76-1.83c1.56-.08,3.13-.23,4.7-.29A2,2,0,0,0,191.22,16.56Zm42.49,275.77c0,3.55,0,7.1,0,10.65a16.57,16.57,0,0,1-.21,2.73,5.89,5.89,0,0,1-4.2,4.94,6.1,6.1,0,0,1-6.36-1.36,6.4,6.4,0,0,1-2.05-4.9c0-3.15,0-6.29,0-9.44,0-.29.06-.66-.34-.74s-.46.15-.63.34c-1.5,1.66-3,3.36-4.31,5.13a28.88,28.88,0,0,0-4.58,8.54c-.33,1-.7,2-1.1,3a12.73,12.73,0,0,1-9,7.94,26,26,0,0,1-11.31.14,45,45,0,0,1-10.21-3.43,107.08,107.08,0,0,0-12.56-5,23.24,23.24,0,0,0-15.65.4q-2.34.92-4.74,1.66a13.36,13.36,0,0,1-7,.43,21.23,21.23,0,0,1-5.14-1.87c-2.65-1.39-5.27-2.83-7.92-4.21a16.1,16.1,0,0,0-9.86-1.79c-2.88.39-5.43,1.47-6.79,4.25a8.63,8.63,0,0,1-2,2.63L92.85,326.1c-1.21,1.13-1.15,1.11-.12,2.43a28.49,28.49,0,0,0,6.49,5.9,171.16,171.16,0,0,0,94.06,30.21,167,167,0,0,0,17.33-.6,163.21,163.21,0,0,0,18.66-2.6,168.17,168.17,0,0,0,54.14-20.68,170.93,170.93,0,0,0,61.28-62.2,135.24,135.24,0,0,0,6.24-12c.5-1.12.49-1.22-.37-2a46.77,46.77,0,0,0-11.88-7.6c-5.84-2.51-11.87-2.74-18-1.64a51.45,51.45,0,0,1-10.72,1.09,17,17,0,0,1-7-1.68,47.91,47.91,0,0,1-4.61-2.66,35.21,35.21,0,0,0-4.93-2.71,10.13,10.13,0,0,0-9.49.49,28.51,28.51,0,0,0-3.18,2.08,31.32,31.32,0,0,1-11.3,5.44,66.31,66.31,0,0,0-12,4.37c-8.71,4.29-16.13,10.31-23,17.07a2.42,2.42,0,0,0-.69,1.92C233.72,284.61,233.71,288.47,233.71,292.33Zm-9.61-94.89c-.66.05-1-.37-1.42-.63-3.07-2-6.1-4-9.19-6a11.66,11.66,0,0,1-5.1-6.76c-2.42-8-4.88-15.89-7.32-23.84a19.44,19.44,0,0,0-1.13-3,6.78,6.78,0,0,0-6.43-4.07c-2.23,0-4.46,0-6.7,0-6-.06-12,.11-18-.17a23.84,23.84,0,0,0-4.7.13,6.6,6.6,0,0,0-5.28,4.09c-.16.37-.26.77-.39,1.15-.25.73-.87.58-1.41.57s-.75-.42-.74-.94a4.16,4.16,0,0,0,0-.61,4.52,4.52,0,0,0-3.39-4.19,7.81,7.81,0,0,0-2.26-.25H132.4a9.21,9.21,0,0,0-1.66.12,4.63,4.63,0,0,0-4,4.32,12.46,12.46,0,0,0,0,1.37v18.88a10.88,10.88,0,0,0,.14,2,4.49,4.49,0,0,0,3.41,3.68,9.79,9.79,0,0,0,2.41.21c1.17.05,1.26.15,1.31,1.35,0,.41,0,.81,0,1.22q0,11,0,21.92a15.12,15.12,0,0,0,.11,2.13,6.75,6.75,0,0,0,6.61,6.19,89.46,89.46,0,0,0,9,0c4.05-.2,6.6-3,6.7-7,0-.2,0-.41,0-.61,0-.66.41-.87,1-.85.75,0,.91.27.9,1.57-.09,7.11.17,14.21-.22,21.31-.31,5.62-.47,11.25-.62,16.88A22,22,0,0,1,154,258.81q-7.34,11.93-14.68,23.85c-2.15,3.5-4.31,7-6.46,10.5a6.62,6.62,0,0,0-.49,6.92,6.36,6.36,0,0,0,3.9,3.19c2.37.73,4.75,1.44,7.15,2.1A10,10,0,0,0,154.48,301c.29-.48.57-1,.85-1.44q8.38-14.49,16.75-29c1.37-2.37,2.81-4.71,4-7.17,2.08-4.23,2.61-8.8,2.64-13.46s.08-9.13.13-13.7c0-.41,0-.81,0-1.22.07-1,.18-1.13,1.18-1.15,1.32,0,2.64,0,4,0a1.62,1.62,0,0,1,1.66,1c2,3.72,4,7.38,5.95,11.14a15.24,15.24,0,0,1,1.53,9c-.71,5.27-1.62,10.52-2.45,15.77-1.16,7.36-2.35,14.71-3.48,22.07a6.38,6.38,0,0,0,4.84,7.52,9,9,0,0,0,3.18.06c2.07-.27,4.12-.59,6.18-.88a10.22,10.22,0,0,0,8.8-9c.33-2.62.67-5.23,1-7.84q.87-6.8,1.73-13.57c.46-3.67.94-7.34,1.4-11,.26-2.06.6-4.12.7-6.19a25.78,25.78,0,0,0-2.53-12.38c-3.43-7.3-6.67-14.69-10.19-21.94a16.15,16.15,0,0,1-1.83-8.77,11.77,11.77,0,0,1,.13-2.52,1.41,1.41,0,0,1,1,.26l9,4.72c4.13,2.17,8.26,4.36,12.4,6.5.79.41,1.37.85,1.25,1.84,0,.4,0,.81,0,1.22v82.22c0,.55,0,1.11,0,1.67a3.34,3.34,0,0,0,3.27,3.33A3.47,3.47,0,0,0,231.2,305c.06-.61,0-1.22,0-1.83V220.78c0-.5,0-1,0-1.52a1,1,0,0,1,.4-.94c2-1.27,2.86-3.38,4-5.28a6.38,6.38,0,0,0,.86-4.09,7,7,0,0,0-3.78-5.56,2.75,2.75,0,0,1-1.52-2.81c.06-8.32,0-16.65,0-25a11,11,0,0,0,0-1.52,3.49,3.49,0,0,0-4.58-2.93c-1.57.54-2.34,1.72-2.34,3.67,0,7,0,13.91,0,20.86A4.13,4.13,0,0,1,224.1,197.44ZM151.53,123.9A24,24,0,1,0,175.47,100,24,24,0,0,0,151.53,123.9Z"/><path class="cls-2" d="M156.33,183.29V169.92c0-.41,0-.82,0-1.22s.4-.65.85-.65.94,0,1,.65a9.39,9.39,0,0,1,0,1.06v27.06c0,.31,0,.61,0,.91,0,.69-.46.82-1,.81s-.86-.23-.87-.8c0-.36,0-.71,0-1.07Z"/></g></svg>